<?xml version="1.0" encoding="UTF-8"?>
<svg version="1.1" xmlns="http://www.w3.org/2000/svg" width="512" height="512">
<path d="M0 0 C2.52627381 2.22533837 4.98492771 4.50583772 7.4296875 6.8203125 C8.31398438 7.64015625 9.19828125 8.46 10.109375 9.3046875 C34.99558232 33.13340726 50.82678132 68.53530302 51.6328125 103.05859375 C52.09412729 144.37838431 40.43443083 179.99130063 12.4296875 210.8203125 C11.65238281 211.68140625 10.87507813 212.5425 10.07421875 213.4296875 C-15.88732891 240.73932223 -53.19502445 255.09871087 -90.45922852 256.10595703 C-111.59792861 256.34639308 -134.72342647 252.69376362 -153.51171875 242.60546875 C-156.0842209 241.62430569 -157.00387174 241.88755942 -159.5703125 242.8203125 C-161.45927354 244.31680429 -161.45927354 244.31680429 -163.24975586 246.25439453 C-163.95406235 246.97829376 -164.65836884 247.70219299 -165.38401794 248.44802856 C-166.13514359 249.23346039 -166.88626923 250.01889221 -167.66015625 250.828125 C-169.26456059 252.47045601 -170.86939135 254.11237053 -172.47460938 255.75390625 C-174.99967762 258.35358158 -177.51975789 260.95773275 -180.03198242 263.56982422 C-182.45749048 266.08567528 -184.90109172 268.58277056 -187.34765625 271.078125 C-188.09675766 271.86760529 -188.84585907 272.65708557 -189.61766052 273.4704895 C-190.32511917 274.18808441 -191.03257782 274.90567932 -191.76147461 275.64501953 C-192.37784286 276.28376007 -192.99421112 276.92250061 -193.6292572 277.58059692 C-195.5703125 278.8203125 -195.5703125 278.8203125 -198.07789612 278.53439331 C-199.31164223 278.18092331 -199.31164223 278.18092331 -200.5703125 277.8203125 C-209.36325529 277.22418079 -217.65156132 279.13156153 -224.5703125 284.8203125 C-231.51065276 291.67090698 -235.33490258 298.34653982 -235.6953125 308.2578125 C-235.72842792 311.74016969 -235.72842792 311.74016969 -234.70703125 314.6171875 C-234.556101 318.15326775 -234.78188077 318.59756264 -236.89453125 321.21484375 C-237.98841412 322.38031712 -239.11141174 323.51895739 -240.2578125 324.6328125 C-240.84925049 325.21740234 -241.44068848 325.80199219 -242.05004883 326.40429688 C-246.78726235 330.76099358 -250.21964069 331.89976946 -256.71484375 331.75390625 C-262.510662 331.88869272 -267.45445838 334.64739177 -271.453125 338.75390625 C-275.64610281 344.11160012 -277.71549038 348.63623626 -277.62890625 355.50390625 C-278.17568313 363.21192499 -282.14440114 366.83774327 -287.6328125 371.8828125 C-288.46748047 372.70974609 -289.30214844 373.53667969 -290.16210938 374.38867188 C-298.65083068 382.53334524 -304.97327257 384.33751054 -316.5703125 384.1953125 C-317.51648438 384.20691406 -318.46265625 384.21851563 -319.4375 384.23046875 C-330.12514421 384.18606026 -335.97045994 381.18517313 -343.5703125 373.8203125 C-344.31877441 373.10858887 -345.06723633 372.39686523 -345.83837891 371.66357422 C-348.21020609 369.38458558 -350.54924234 367.07591575 -352.8828125 364.7578125 C-353.68009766 363.98115234 -354.47738281 363.20449219 -355.29882812 362.40429688 C-364.03925738 353.72267622 -365.75734729 347.0337019 -365.8203125 335.0703125 C-365.8409375 334.10609375 -365.8615625 333.141875 -365.8828125 332.1484375 C-365.88796875 331.1996875 -365.893125 330.2509375 -365.8984375 329.2734375 C-365.91245605 327.99194824 -365.91245605 327.99194824 -365.92675781 326.68457031 C-365.01096036 319.32557327 -362.10830949 314.61593352 -356.92584229 309.61494446 C-356.35495967 309.04402311 -355.78407705 308.47310176 -355.19589496 307.88487977 C-353.29359236 305.98835839 -351.37407581 304.11030539 -349.45410156 302.23168945 C-348.08147842 300.87030702 -346.7100015 299.50776808 -345.33958435 298.14416504 C-342.39352779 295.21726155 -339.43994057 292.29825538 -336.48032379 289.38506508 C-331.80353406 284.78074894 -327.1464875 280.15680453 -322.49237061 275.52958679 C-310.93450745 264.04471023 -299.34981837 252.58698914 -287.76190186 241.13244629 C-278.7464651 232.22005294 -269.73802788 223.30081 -260.74979377 214.36097306 C-256.12018362 209.75788172 -251.47666963 205.16943317 -246.82223463 200.59145129 C-243.93613079 197.74680551 -241.0624581 194.88985465 -238.19212532 192.0293045 C-236.85531989 190.70216409 -235.51332298 189.38023029 -234.16591454 188.06385612 C-232.33219633 186.27098122 -230.51767245 184.46068106 -228.70684814 182.64472961 C-228.16513985 182.12390897 -227.62343155 181.60308832 -227.06530786 181.06648523 C-225.41423366 179.45417656 -225.41423366 179.45417656 -223.5703125 176.8203125 C-223.72978973 172.55984749 -225.72544003 168.84748059 -227.3828125 164.9453125 C-242.16834542 128.77142859 -240.64185826 88.57354501 -225.75146484 52.734375 C-210.82159972 18.34066113 -182.2384059 -9.06293296 -147.66455078 -23.36669922 C-98.19696017 -42.57013554 -40.70237541 -34.51660407 0 0 Z M-87.8828125 46.1328125 C-96.04579908 56.423263 -98.66950193 67.89440136 -97.5703125 80.8203125 C-95.29793928 92.04610834 -89.17777192 102.37041489 -79.5703125 108.8203125 C-68.63966572 115.15973446 -57.94883504 117.71875282 -45.34765625 115.16796875 C-34.34374787 111.85969694 -24.97363693 105.41267411 -19.16796875 95.40234375 C-13.32138674 84.20063155 -11.42602542 72.89975451 -15.1328125 60.5703125 C-19.72146306 48.45239728 -27.55772967 40.26629044 -39.1796875 34.85546875 C-56.40498677 27.39680158 -75.31844876 32.57736663 -87.8828125 46.1328125 Z " fill="#FED600" transform="translate(407.5703125,86.1796875)"/>
<path d="M0 0 C2.81893736 2.6940571 4.58639961 5.50036509 6.5625 8.875 C21.28695644 33.33998575 40.86986192 49.27237348 65 64 C58.74068868 71.44539389 51.98724987 78.3423786 45.15014648 85.25488281 C43.66699319 86.75980146 42.19014788 88.27096137 40.71948242 89.78808594 C38.58632885 91.98781911 36.43442833 94.16751061 34.27734375 96.34375 C33.62201157 97.02691284 32.96667938 97.71007568 32.29148865 98.41394043 C30.58892262 100.10889875 28.98943642 101.65336633 27 103 C24.27563477 102.93164062 24.27563477 102.93164062 22 102 C13.20705721 101.40386829 4.91875118 103.31124903 -2 109 C-8.94034026 115.85059448 -12.76459008 122.52622732 -13.125 132.4375 C-13.15811542 135.91985719 -13.15811542 135.91985719 -12.13671875 138.796875 C-11.9857885 142.33295525 -12.21156827 142.77725014 -14.32421875 145.39453125 C-15.41810162 146.56000462 -16.54109924 147.69864489 -17.6875 148.8125 C-18.27893799 149.39708984 -18.87037598 149.98167969 -19.47973633 150.58398438 C-24.21694985 154.94068108 -27.64932819 156.07945696 -34.14453125 155.93359375 C-39.9403495 156.06838022 -44.88414588 158.82707927 -48.8828125 162.93359375 C-53.07579031 168.29128762 -55.14517788 172.81592376 -55.05859375 179.68359375 C-55.60537063 187.39161249 -59.57408864 191.01743077 -65.0625 196.0625 C-65.89716797 196.88943359 -66.73183594 197.71636719 -67.59179688 198.56835938 C-76.08051818 206.71303274 -82.40296007 208.51719804 -94 208.375 C-94.94617188 208.38660156 -95.89234375 208.39820313 -96.8671875 208.41015625 C-107.55483171 208.36574776 -113.40014744 205.36486063 -121 198 C-121.74846191 197.28827637 -122.49692383 196.57655273 -123.26806641 195.84326172 C-125.63989359 193.56427308 -127.97892984 191.25560325 -130.3125 188.9375 C-131.10978516 188.16083984 -131.90707031 187.38417969 -132.72851562 186.58398438 C-141.46894488 177.90236372 -143.18703479 171.2133894 -143.25 159.25 C-143.270625 158.28578125 -143.29125 157.3215625 -143.3125 156.328125 C-143.31765625 155.379375 -143.3228125 154.430625 -143.328125 153.453125 C-143.3374707 152.59879883 -143.34681641 151.74447266 -143.35644531 150.86425781 C-142.43763687 143.48106558 -139.50261118 138.76063173 -134.32429504 133.72302246 C-133.46290414 132.85522337 -133.46290414 132.85522337 -132.58411139 131.96989298 C-130.67035271 130.0479446 -128.73936431 128.14433652 -126.80786133 126.24023438 C-125.42705173 124.8608361 -124.0473441 123.48033399 -122.6686554 122.09881592 C-118.9321304 118.3608587 -115.18041091 114.63849868 -111.42574525 110.91877556 C-107.50101097 107.02533655 -103.59046876 103.11769584 -99.6783905 99.21154785 C-92.27236917 91.82105553 -84.85369683 84.44339932 -77.43037957 77.07028437 C-68.97803851 68.67386575 -60.53992176 60.2632139 -52.10296214 51.85134411 C-34.75107472 34.55169356 -17.38142567 17.26996885 0 0 Z " fill="#FCB600" transform="translate(185,262)"/>
</svg>
